<mxfile host="app.diagrams.net" modified="2022-11-27T07:57:13.659Z" agent="5.0 (X11)" etag="WTM0E1izzSfej_9jGBt6" version="20.5.2" type="github">
  <diagram id="Imm6RlBQTcU_sDwAdbRj" name="Page-1">
    <mxGraphModel dx="1214" dy="676" grid="1" gridSize="10" guides="1" tooltips="1" connect="1" arrows="1" fold="1" page="1" pageScale="1" pageWidth="850" pageHeight="1100" math="0" shadow="0">
      <root>
        <mxCell id="0" />
        <mxCell id="1" parent="0" />
        <mxCell id="QAS7FAwJ0gN49UtU_o3m-10" value="" style="pointerEvents=1;shadow=0;dashed=0;html=1;strokeColor=none;fillColor=#4495D1;labelPosition=center;verticalLabelPosition=bottom;verticalAlign=top;align=center;outlineConnect=0;shape=mxgraph.veeam.2d.network_card;comic=1;" parent="1" vertex="1">
          <mxGeometry x="247.20000000000002" y="210" width="42.8" height="30" as="geometry" />
        </mxCell>
        <mxCell id="QAS7FAwJ0gN49UtU_o3m-17" value="" style="endArrow=classic;startArrow=classic;html=1;rounded=0;strokeColor=#000000;exitX=0.5;exitY=1;exitDx=0;exitDy=0;entryX=0.5;entryY=0;entryDx=0;entryDy=0;" parent="1" target="QAS7FAwJ0gN49UtU_o3m-9" edge="1">
          <mxGeometry width="50" height="50" relative="1" as="geometry">
            <mxPoint x="496" y="420" as="sourcePoint" />
            <mxPoint x="360" y="210" as="targetPoint" />
            <Array as="points">
              <mxPoint x="496" y="440" />
              <mxPoint x="430" y="440" />
              <mxPoint x="430" y="150" />
              <mxPoint x="400" y="150" />
              <mxPoint x="360" y="150" />
            </Array>
          </mxGeometry>
        </mxCell>
        <mxCell id="GdNjGD04FshlyLIHbKeY-66" value="" style="fillColor=#28A8E0;verticalLabelPosition=bottom;sketch=0;html=1;strokeColor=#ffffff;verticalAlign=top;align=center;points=[[0.145,0.145,0],[0.5,0,0],[0.855,0.145,0],[1,0.5,0],[0.855,0.855,0],[0.5,1,0],[0.145,0.855,0],[0,0.5,0]];pointerEvents=1;shape=mxgraph.cisco_safe.compositeIcon;bgIcon=ellipse;resIcon=mxgraph.cisco_safe.capability.virtual_private_network;" vertex="1" parent="1">
          <mxGeometry x="370" y="678.5" width="43" height="43" as="geometry" />
        </mxCell>
        <mxCell id="GdNjGD04FshlyLIHbKeY-82" value="" style="rounded=1;whiteSpace=wrap;html=1;fillColor=#dae8fc;strokeColor=#6c8ebf;" vertex="1" parent="1">
          <mxGeometry x="59" y="510" width="300" height="250" as="geometry" />
        </mxCell>
        <mxCell id="GdNjGD04FshlyLIHbKeY-83" value="telnet 10.85.63.5 1234" style="shape=process;whiteSpace=wrap;html=1;backgroundOutline=1;fillColor=#f8cecc;strokeColor=#b85450;" vertex="1" parent="1">
          <mxGeometry x="79.00000000000003" y="540" width="120" height="60" as="geometry" />
        </mxCell>
        <mxCell id="GdNjGD04FshlyLIHbKeY-84" value="vtund" style="shape=process;whiteSpace=wrap;html=1;backgroundOutline=1;fillColor=#e1d5e7;strokeColor=#9673a6;" vertex="1" parent="1">
          <mxGeometry x="219" y="540" width="120" height="60" as="geometry" />
        </mxCell>
        <mxCell id="GdNjGD04FshlyLIHbKeY-88" value="tun0(10.85.63.4)" style="rounded=0;whiteSpace=wrap;html=1;fillColor=#ffe6cc;strokeColor=#d79b00;" vertex="1" parent="1">
          <mxGeometry x="79" y="670" width="120" height="60" as="geometry" />
        </mxCell>
        <mxCell id="GdNjGD04FshlyLIHbKeY-89" value="eth0(192.168.3.221)" style="rounded=0;whiteSpace=wrap;html=1;fillColor=#d5e8d4;strokeColor=#82b366;" vertex="1" parent="1">
          <mxGeometry x="219" y="670" width="120" height="60" as="geometry" />
        </mxCell>
        <mxCell id="GdNjGD04FshlyLIHbKeY-90" value="" style="endArrow=none;dashed=1;html=1;dashPattern=1 3;strokeWidth=2;rounded=0;exitX=0.007;exitY=0.469;exitDx=0;exitDy=0;exitPerimeter=0;entryX=1;entryY=0.473;entryDx=0;entryDy=0;entryPerimeter=0;" edge="1" parent="1">
          <mxGeometry width="50" height="50" relative="1" as="geometry">
            <mxPoint x="61.09999999999991" y="619.94" as="sourcePoint" />
            <mxPoint x="359" y="620.98" as="targetPoint" />
          </mxGeometry>
        </mxCell>
        <mxCell id="GdNjGD04FshlyLIHbKeY-93" value="" style="rounded=1;whiteSpace=wrap;html=1;fillColor=#dae8fc;strokeColor=#6c8ebf;" vertex="1" parent="1">
          <mxGeometry x="421" y="510" width="300" height="250" as="geometry" />
        </mxCell>
        <mxCell id="GdNjGD04FshlyLIHbKeY-94" value="vtund" style="shape=process;whiteSpace=wrap;html=1;backgroundOutline=1;fillColor=#e1d5e7;strokeColor=#9673a6;" vertex="1" parent="1">
          <mxGeometry x="441" y="540" width="120" height="60" as="geometry" />
        </mxCell>
        <mxCell id="GdNjGD04FshlyLIHbKeY-95" value="nc -lk -s 192.168.122.100 -p 8080 -v -e /bin/cat" style="shape=process;whiteSpace=wrap;html=1;backgroundOutline=1;fillColor=#f8cecc;strokeColor=#b85450;" vertex="1" parent="1">
          <mxGeometry x="581" y="540" width="120" height="60" as="geometry" />
        </mxCell>
        <mxCell id="GdNjGD04FshlyLIHbKeY-96" value="&lt;div&gt;eth0(192.168.3.221)&lt;/div&gt;" style="rounded=0;whiteSpace=wrap;html=1;fillColor=#d5e8d4;strokeColor=#82b366;" vertex="1" parent="1">
          <mxGeometry x="441" y="670" width="120" height="60" as="geometry" />
        </mxCell>
        <mxCell id="GdNjGD04FshlyLIHbKeY-97" value="&lt;div&gt;tun0(10.85.63.4)&lt;/div&gt;" style="rounded=0;whiteSpace=wrap;html=1;fillColor=#ffe6cc;strokeColor=#d79b00;" vertex="1" parent="1">
          <mxGeometry x="581" y="670" width="120" height="60" as="geometry" />
        </mxCell>
        <mxCell id="GdNjGD04FshlyLIHbKeY-98" value="" style="endArrow=none;dashed=1;html=1;dashPattern=1 3;strokeWidth=2;rounded=0;exitX=0.007;exitY=0.469;exitDx=0;exitDy=0;exitPerimeter=0;entryX=1;entryY=0.473;entryDx=0;entryDy=0;entryPerimeter=0;" edge="1" parent="1">
          <mxGeometry width="50" height="50" relative="1" as="geometry">
            <mxPoint x="423.0999999999999" y="620.94" as="sourcePoint" />
            <mxPoint x="721" y="621.98" as="targetPoint" />
          </mxGeometry>
        </mxCell>
        <mxCell id="GdNjGD04FshlyLIHbKeY-99" value="" style="endArrow=classic;html=1;rounded=0;exitX=0.5;exitY=1;exitDx=0;exitDy=0;entryX=0.5;entryY=0;entryDx=0;entryDy=0;strokeWidth=2;strokeColor=#67AB9F;" edge="1" parent="1" source="GdNjGD04FshlyLIHbKeY-83" target="GdNjGD04FshlyLIHbKeY-88">
          <mxGeometry width="50" height="50" relative="1" as="geometry">
            <mxPoint x="469" y="710" as="sourcePoint" />
            <mxPoint x="519" y="660" as="targetPoint" />
          </mxGeometry>
        </mxCell>
        <mxCell id="GdNjGD04FshlyLIHbKeY-101" value="" style="endArrow=classic;html=1;rounded=0;exitX=0.5;exitY=1;exitDx=0;exitDy=0;entryX=0.5;entryY=0;entryDx=0;entryDy=0;strokeWidth=2;strokeColor=#67AB9F;fillColor=#dae8fc;" edge="1" parent="1" source="GdNjGD04FshlyLIHbKeY-84" target="GdNjGD04FshlyLIHbKeY-89">
          <mxGeometry y="10" width="50" height="50" relative="1" as="geometry">
            <mxPoint x="149" y="610" as="sourcePoint" />
            <mxPoint x="149" y="710" as="targetPoint" />
            <mxPoint as="offset" />
          </mxGeometry>
        </mxCell>
        <mxCell id="GdNjGD04FshlyLIHbKeY-102" value="4" style="endArrow=none;html=1;rounded=0;strokeColor=#67AB9F;strokeWidth=2;exitX=1;exitY=0.5;exitDx=0;exitDy=0;entryX=0;entryY=0.5;entryDx=0;entryDy=0;" edge="1" parent="1">
          <mxGeometry x="-0.4286" y="10" width="50" height="50" relative="1" as="geometry">
            <mxPoint x="336" y="700" as="sourcePoint" />
            <mxPoint x="438" y="700" as="targetPoint" />
            <mxPoint as="offset" />
          </mxGeometry>
        </mxCell>
        <mxCell id="GdNjGD04FshlyLIHbKeY-103" value="" style="endArrow=classic;html=1;rounded=0;strokeColor=#67AB9F;strokeWidth=2;entryX=0.5;entryY=1;entryDx=0;entryDy=0;exitX=0.5;exitY=0;exitDx=0;exitDy=0;" edge="1" parent="1" source="GdNjGD04FshlyLIHbKeY-96" target="GdNjGD04FshlyLIHbKeY-94">
          <mxGeometry width="50" height="50" relative="1" as="geometry">
            <mxPoint x="431" y="710" as="sourcePoint" />
            <mxPoint x="481" y="660" as="targetPoint" />
          </mxGeometry>
        </mxCell>
        <mxCell id="GdNjGD04FshlyLIHbKeY-106" value="" style="endArrow=classic;html=1;rounded=0;strokeColor=#67AB9F;strokeWidth=2;entryX=0.5;entryY=1;entryDx=0;entryDy=0;exitX=0.5;exitY=0;exitDx=0;exitDy=0;" edge="1" parent="1" source="GdNjGD04FshlyLIHbKeY-97" target="GdNjGD04FshlyLIHbKeY-95">
          <mxGeometry width="50" height="50" relative="1" as="geometry">
            <mxPoint x="431" y="710" as="sourcePoint" />
            <mxPoint x="481" y="660" as="targetPoint" />
          </mxGeometry>
        </mxCell>
        <mxCell id="GdNjGD04FshlyLIHbKeY-107" value="" style="curved=1;endArrow=classic;html=1;rounded=0;strokeColor=#67AB9F;strokeWidth=2;entryX=0;entryY=0.5;entryDx=0;entryDy=0;exitX=1;exitY=0.5;exitDx=0;exitDy=0;" edge="1" parent="1" source="GdNjGD04FshlyLIHbKeY-88" target="GdNjGD04FshlyLIHbKeY-84">
          <mxGeometry width="50" height="50" relative="1" as="geometry">
            <mxPoint x="169" y="630" as="sourcePoint" />
            <mxPoint x="219" y="580" as="targetPoint" />
            <Array as="points">
              <mxPoint x="219" y="700" />
              <mxPoint x="199" y="620" />
            </Array>
          </mxGeometry>
        </mxCell>
        <mxCell id="GdNjGD04FshlyLIHbKeY-108" value="" style="curved=1;endArrow=classic;html=1;rounded=0;strokeColor=#67AB9F;strokeWidth=2;exitX=1;exitY=0.5;exitDx=0;exitDy=0;entryX=0;entryY=0.5;entryDx=0;entryDy=0;" edge="1" parent="1" source="GdNjGD04FshlyLIHbKeY-94" target="GdNjGD04FshlyLIHbKeY-97">
          <mxGeometry width="50" height="50" relative="1" as="geometry">
            <mxPoint x="581" y="610" as="sourcePoint" />
            <mxPoint x="531" y="660" as="targetPoint" />
            <Array as="points">
              <mxPoint x="581" y="620" />
              <mxPoint x="561" y="680" />
            </Array>
          </mxGeometry>
        </mxCell>
        <mxCell id="GdNjGD04FshlyLIHbKeY-109" value="1" style="text;html=1;strokeColor=none;fillColor=none;align=center;verticalAlign=middle;whiteSpace=wrap;rounded=0;" vertex="1" parent="1">
          <mxGeometry x="119" y="620" width="60" height="30" as="geometry" />
        </mxCell>
        <mxCell id="GdNjGD04FshlyLIHbKeY-110" value="2" style="text;html=1;strokeColor=none;fillColor=none;align=center;verticalAlign=middle;whiteSpace=wrap;rounded=0;" vertex="1" parent="1">
          <mxGeometry x="189" y="620" width="60" height="30" as="geometry" />
        </mxCell>
        <mxCell id="GdNjGD04FshlyLIHbKeY-111" value="3" style="text;html=1;strokeColor=none;fillColor=none;align=center;verticalAlign=middle;whiteSpace=wrap;rounded=0;" vertex="1" parent="1">
          <mxGeometry x="257.6" y="620" width="60" height="30" as="geometry" />
        </mxCell>
        <mxCell id="GdNjGD04FshlyLIHbKeY-112" value="5" style="text;html=1;strokeColor=none;fillColor=none;align=center;verticalAlign=middle;whiteSpace=wrap;rounded=0;" vertex="1" parent="1">
          <mxGeometry x="481" y="620" width="60" height="30" as="geometry" />
        </mxCell>
        <mxCell id="GdNjGD04FshlyLIHbKeY-113" value="6" style="text;html=1;strokeColor=none;fillColor=none;align=center;verticalAlign=middle;whiteSpace=wrap;rounded=0;" vertex="1" parent="1">
          <mxGeometry x="551" y="620" width="60" height="30" as="geometry" />
        </mxCell>
        <mxCell id="GdNjGD04FshlyLIHbKeY-114" value="7" style="text;html=1;strokeColor=none;fillColor=none;align=center;verticalAlign=middle;whiteSpace=wrap;rounded=0;" vertex="1" parent="1">
          <mxGeometry x="621" y="620" width="60" height="30" as="geometry" />
        </mxCell>
        <mxCell id="GdNjGD04FshlyLIHbKeY-116" value="HOST 0" style="text;html=1;strokeColor=none;fillColor=none;align=center;verticalAlign=middle;whiteSpace=wrap;rounded=0;" vertex="1" parent="1">
          <mxGeometry x="189" y="510" width="60" height="30" as="geometry" />
        </mxCell>
        <mxCell id="GdNjGD04FshlyLIHbKeY-117" value="HOST 1" style="text;html=1;strokeColor=none;fillColor=none;align=center;verticalAlign=middle;whiteSpace=wrap;rounded=0;" vertex="1" parent="1">
          <mxGeometry x="541" y="510" width="60" height="30" as="geometry" />
        </mxCell>
      </root>
    </mxGraphModel>
  </diagram>
</mxfile>
